<svg xmlns="http://www.w3.org/2000/svg" viewBox="0 0 100 50" width="100" height="50">
  <rect width="100" height="50" fill="#fff"/>
  <rect width="25" height="50" fill="#d52b1e"/>
  <rect x="75" width="25" height="50" fill="#d52b1e"/>
  <path fill="#d52b1e" d="M50,9 l2.8,6.5 c0.4,0.9 1.1,0.9 2,0.4 l4.7,-2.4 -2.2,7 c-0.4,1.2 0.2,1.6 0.9,1.7 l2.6,0.3 -6.4,5.2 c-0.7,0.6 -0.5,1.1 -0.3,1.8 l0.6,1.9 -6.1,-1.1 c-0.8,-0.1 -1.2,0.3 -1.2,1 l0.3,7.5 -1.6,0 0.3,-7.5 c0,-0.7 -0.4,-1.1 -1.2,-1 l-6.1,1.1 0.6,-1.9 c0.2,-0.7 0.4,-1.2 -0.3,-1.8 l-6.4,-5.2 2.6,-0.3 c0.7,-0.1 1.3,-0.5 0.9,-1.7 l-2.2,-7 4.7,2.4 c0.9,0.5 1.6,0.5 2,-0.4 z"/>
</svg>
